{"title":"Man On The Moon[1999]BRrip[Ac3]-=[CaLvIn]=-","uid":7358955,"size":757860823,"categoryP":"video","categoryS":"movies","magnet":"?xt=urn:btih:642f44bac4d16c7ff60a376bb71a783bc65bbb78&amp;dn=Man+On+The+Moon%5B1999%5DBRrip%5BAc3%5D-%3D%5BCaLvIn%5D%3D-&amp;tr=udp%3A%2F%2Ftracker.openbittorrent.com%3A80&amp;tr=udp%3A%2F%2Fopen.demonii.com%3A1337&amp;tr=udp%3A%2F%2Ftracker.coppersurfer.tk%3A6969&amp;tr=udp%3A%2F%2Fexodus.desync.com%3A6969","seeders":1,"leechers":0,"uploader":"rhythmtheguru","files":16,"time":1339878664,"description":"General\n\nComplete name                    : Man On The Moon[1999]BRrip[Ac3]-=[CaLvIn]=-\nFormat                           : AVI\nFormat/Info                      : Audio Video Interleave\nFile size                        : 709 MiB\nDuration                         : 1h 58mn\nOverall bit rate                 : 837 Kbps\n\n\nVideo\n\nID                               : 0\nFormat                           : MPEG-4 Visual\nFormat profile                   : Advanced Simple@L5\nFormat settings, BVOP            : 2\nFormat settings, QPel            : No\nFormat settings, GMC             : No warppoints\nFormat settings, Matrix          : Default (H.263)\nCodec ID                         : XVID\nCodec ID/Hint                    : XviD\nDuration                         : 1h 58mn\nBit rate                         : 699 Kbps\nWidth                            : 720 pixels\nHeight                           : 304 pixels\nDisplay aspect ratio             : 16:9\nFrame rate                       : 24.000 fps\nColor space                      : YUV\nChroma subsampling               : 4:2:0\nBit depth                        : 8 bits\nScan type                        : Progressive\nCompression mode                 : Lossy\nBits/(Pixel*Frame)               : 0.133\nStream size                      : 593 MiB (84%)\nWriting library                  : XviD 1.2.1 (UTC 2008-12-04)\n\nAudio\n\nID                               : 1\nFormat                           : AC-3\nFormat/Info                      : Audio Coding 3\nMode extension                   : CM (complete main)\nCodec ID                         : 2000\nDuration                         : 1h 58mn\nBit rate mode                    : Constant\nBit rate                         : 128 Kbps\nChannel(s)                       : 2 channels\nChannel positions                : Front: L R\nSampling rate                    : 48.0 KHz\nBit depth                        : 16 bits\nCompression mode                 : Lossy\nStream size                      : 108 MiB (15%)\nAlignment                        : Split accross interleaves\nInterleave, duration             : 42 ms (1.00 video frame)\nInterleave, preload duration     : 500 ms\n\n\nScreens\n &lt;a href=&quot;\nhttp://img191.imageshack.us/img191/5565/83650033.png&quot; rel=&quot;nofollow&quot; target=&quot;_NEW&quot;&gt;\nhttp://img191.imageshack.us/img191/5565/83650033.png&lt;/a&gt; &lt;a href=&quot;\nhttp://img37.imageshack.us/img37/8647/81137237.png&quot; rel=&quot;nofollow&quot; target=&quot;_NEW&quot;&gt;\nhttp://img37.imageshack.us/img37/8647/81137237.png&lt;/a&gt; &lt;a href=&quot;\nhttp://img99.imageshack.us/img99/953/47890593.png&quot; rel=&quot;nofollow&quot; target=&quot;_NEW&quot;&gt;\nhttp://img99.imageshack.us/img99/953/47890593.png&lt;/a&gt; &lt;a href=&quot;\nhttp://img545.imageshack.us/img545/6853/90260599.png&quot; rel=&quot;nofollow&quot; target=&quot;_NEW&quot;&gt;\nhttp://img545.imageshack.us/img545/6853/90260599.png&lt;/a&gt; &lt;a href=&quot;\nhttp://img171.imageshack.us/img171/7712/57532646.png&quot; rel=&quot;nofollow&quot; target=&quot;_NEW&quot;&gt;\nhttp://img171.imageshack.us/img171/7712/57532646.png&lt;/a&gt; &lt;a href=&quot;\nhttp://img96.imageshack.us/img96/5371/60165213.png&quot; rel=&quot;nofollow&quot; target=&quot;_NEW&quot;&gt;\nhttp://img96.imageshack.us/img96/5371/60165213.png&lt;/a&gt; &lt;a href=&quot;\nhttp://img502.imageshack.us/img502/271/79272466.png&quot; rel=&quot;nofollow&quot; target=&quot;_NEW&quot;&gt;\nhttp://img502.imageshack.us/img502/271/79272466.png&lt;/a&gt; &lt;a href=&quot;\nhttp://img546.imageshack.us/img546/2616/79156557.png&quot; rel=&quot;nofollow&quot; target=&quot;_NEW&quot;&gt;\nhttp://img546.imageshack.us/img546/2616/79156557.png&lt;/a&gt; &lt;a href=&quot;\nhttp://img135.imageshack.us/img135/5241/65892717.png&quot; rel=&quot;nofollow&quot; target=&quot;_NEW&quot;&gt;\nhttp://img135.imageshack.us/img135/5241/65892717.png&lt;/a&gt; &lt;a href=&quot;\nhttp://img266.imageshack.us/img266/6181/59472005.png&quot; rel=&quot;nofollow&quot; target=&quot;_NEW&quot;&gt;\nhttp://img266.imageshack.us/img266/6181/59472005.png&lt;/a&gt;\n","torrent":{"xt":"urn:btih:642f44bac4d16c7ff60a376bb71a783bc65bbb78","amp;dn":"Man+On+The+Moon%5B1999%5DBRrip%5BAc3%5D-%3D%5BCaLvIn%5D%3D-","amp;tr":["udp%3A%2F%2Ftracker.openbittorrent.com%3A80","udp%3A%2F%2Fopen.demonii.com%3A1337","udp%3A%2F%2Ftracker.coppersurfer.tk%3A6969","udp%3A%2F%2Fexodus.desync.com%3A6969"],"infoHash":"642f44bac4d16c7ff60a376bb71a783bc65bbb78","infoHashBuffer":{"type":"Buffer","data":[100,47,68,186,196,209,108,127,246,10,55,107,183,26,120,59,198,91,187,120]},"announce":[],"urlList":[]}}